<?xml version="1.0"?>
<svg xmlns="http://www.w3.org/2000/svg" id="Solid" viewBox="0 0 512 512" width="512" height="512"><path d="M269.909,443.1a7.955,7.955,0,0,1,1.925-8.187l15.57-15.57q-.731-1.661-1.39-3.341H264a8,8,0,0,1-8-8V360a8,8,0,0,1,8-8h22.014q.658-1.68,1.39-3.341l-15.57-15.57a8,8,0,0,1,0-11.314l33.941-33.942a8,8,0,0,1,11.315,0l15.57,15.571q1.662-.731,3.341-1.391V280a8,8,0,0,1,6.038-7.748C310.956,231.239,265.753,208,216,208c-45.522,0-87.578,19.485-118.421,54.865-31.062,35.633-48.565,85.3-49.536,140.291C66.407,412.417,141.812,448,216,448A310.493,310.493,0,0,0,269.909,443.1Z"/><circle cx="368" cy="384" r="16"/><circle cx="216" cy="112" r="80"/><path d="M325.354,318.727,311.432,304.8,288.8,327.432l13.923,13.922a8,8,0,0,1,1.433,9.362A71.682,71.682,0,0,0,299.3,362.4a8,8,0,0,1-7.633,5.6H272v32h19.668a8,8,0,0,1,7.633,5.6,71.682,71.682,0,0,0,4.859,11.681,8,8,0,0,1-1.433,9.362L288.8,440.568,311.432,463.2l13.922-13.923a8,8,0,0,1,9.362-1.433,71.781,71.781,0,0,0,11.68,4.86,8,8,0,0,1,5.6,7.632V480h32V460.332a8,8,0,0,1,5.6-7.632,71.781,71.781,0,0,0,11.68-4.86,8,8,0,0,1,9.362,1.433L424.568,463.2,447.2,440.568l-13.923-13.922a8,8,0,0,1-1.433-9.362A71.682,71.682,0,0,0,436.7,405.6a8,8,0,0,1,7.633-5.6H464V368H444.332a8,8,0,0,1-7.633-5.6,71.682,71.682,0,0,0-4.859-11.681,8,8,0,0,1,1.433-9.362L447.2,327.432,424.568,304.8l-13.922,13.923a8,8,0,0,1-9.362,1.433,71.781,71.781,0,0,0-11.68-4.86,8,8,0,0,1-5.6-7.632V288H352v19.668a8,8,0,0,1-5.6,7.632,71.781,71.781,0,0,0-11.68,4.86A8,8,0,0,1,325.354,318.727ZM368,352a32,32,0,1,1-32,32A32.036,32.036,0,0,1,368,352Z"/></svg>
