<?xml version="1.0" encoding="UTF-8"?>
<svg xmlns="http://www.w3.org/2000/svg" id="Layer_1" data-name="Layer 1" viewBox="0 0 512 512" width="512" height="512"><title>kid, boy, dog, pet, animal</title><rect x="168" y="232" width="16" height="16"/><path d="M111.35,184a24.027,24.027,0,0,0,24-24h-16a8,8,0,0,1-16,0h-16A24.027,24.027,0,0,0,111.35,184Z"/><path d="M38,488h76.309l-8.624,11.088A8,8,0,0,0,112,512h48a8,8,0,0,0,5.849-2.542l91.629-98.174L304.684,448H248a35.833,35.833,0,0,0-35.793,35.793V504a8,8,0,0,0,8,8H412a68.077,68.077,0,0,0,68-68v-6.133c13.535-5.124,23.481-15.3,27.726-28.615,5.606-17.586.5-37.945-13.652-54.459-6.444-7.518-8.917-14.371-7.561-20.951,2.326-11.281,15.926-20.168,20.98-22.646a8,8,0,0,0-6.976-14.4c-1.027.5-25.2,12.4-29.657,33.728-2.426,11.616,1.3,23.284,11.065,34.681,10.52,12.272,14.466,26.922,10.556,39.187A28.2,28.2,0,0,1,480,420.154V392c0-23.573-15.721-46.07-48.06-68.774-26.958-18.926-61.5-35.579-94.913-51.682-12.623-6.085-24.68-11.9-35.942-17.65a85.1,85.1,0,0,0,4.858-7.711,108,108,0,0,0,7.688-17.1,8,8,0,0,0-4-9.648L264.07,196.5a8,8,0,0,0-10.113,2.505,89.872,89.872,0,0,0-8.041,14.484c-2.975-1.365-5.447-2.481-7.252-3.288l-14.971-52.4a8,8,0,0,0-13.838-2.924l-36.785,44.142-9.2-2.3A68.623,68.623,0,0,0,184,148V114.608c26.119-36.048,22.43-62.224,14.574-77.937C187.435,14.395,160.523,0,130.012,0H77.894C46.534,0,18.849,16.028,7.365,40.834-4.206,65.829,1.873,95.594,24,122.879V148c0,18.027,7.674,35.165,21.609,48.257A73.779,73.779,0,0,0,63.025,208.4L34.7,224.012A42.994,42.994,0,0,0,18,282.475l6,10.8V411.524A38.1,38.1,0,0,0,0,446.83V450A38.043,38.043,0,0,0,38,488ZM330.08,285.956C392.852,316.214,464,350.509,464,392v52a52.059,52.059,0,0,1-52,52H228.207V483.793A19.815,19.815,0,0,1,248,464H360a8,8,0,0,0,8-8,69.747,69.747,0,0,1,8.07-29.257c10.63-20.079,29.745-31.785,56.813-34.792l-1.767-15.9c-40.67,4.519-60.072,25.991-69.187,43.208A88.709,88.709,0,0,0,352.681,448H330.745l-62.306-48.46,9.409-10.081-11.7-10.917L156.523,496H128.357L230.315,364.912a8,8,0,0,0,1.274-7.441l-2.164-6.493,20.627-7.219c4.752-.9,30.524-6.477,41.636-23.425,5.04-7.687,6.449-16.772,4.074-26.273-2.31-9.239-7.687-16.035-15.548-19.65a32.426,32.426,0,0,0-7.926-2.42h.032a26.794,26.794,0,0,0,9.359-1.7,32.72,32.72,0,0,0,7.9-4.318C302.206,272.518,315.789,279.068,330.08,285.956ZM168,408.072l-128,.745V322.073l32.823,59.081a27.94,27.94,0,0,0,33.727,12.831L168,372.476Zm16-9.674V366.876l30.322-10.613.735,2.2Zm57.908-105.973c9-3.445,23.243-7.333,31.62-3.48,2.165,1,5.216,3.011,6.711,9,1.3,5.189.671,9.636-1.916,13.595-5.091,7.792-16.8,12.63-25.042,15.011Zm21.52-78.335,32.5,16.359c-3.891,8.8-11.165,21.632-19.812,24.838-2.257.837-5.878,1.574-11.258-1.669-4.678-2.821-7.434-6.489-8.423-11.214C254.52,233.262,259.32,221.591,263.428,214.09Zm-84.351,1.294a8,8,0,0,0,3.069-2.263l30.317-36.381L224.308,218.2a8,8,0,0,0,4.5,5.136c.058.025,4.769,2.081,12.154,5.488a42.75,42.75,0,0,0-.2,16.806c1.886,9.084,7.361,16.585,15.834,21.693a32.541,32.541,0,0,0,10.165,4.079,67.784,67.784,0,0,0-20.772,2.838,110.653,110.653,0,0,0-16.846,6.257l-53.608,15.317L88,281.223v-27.89ZM21.884,47.557C30.759,28.387,52.745,16,77.894,16h52.118c24.5,0,45.8,10.923,54.25,27.827,7.427,14.854,4.66,33.221-7.948,53.578L152.8,59.761a8,8,0,0,0-12.441-1.418L122.012,76.687,103.669,58.343a8,8,0,0,0-12.313,1.219L82.012,73.578,72.668,59.563a8,8,0,0,0-13.494.285L31.216,105.88C17.116,85.5,13.771,65.082,21.884,47.557ZM40,148V122.239L66.326,78.894l9.03,13.544a8,8,0,0,0,13.313,0l10.587-15.88,17.1,17.1a8,8,0,0,0,11.313,0l16.888-16.888L168,114.293V148c0,28.673-22.579,52-50.332,52H94.335C65.39,200,40,175.7,40,148ZM29.629,254.18a26.8,26.8,0,0,1,12.824-16.169L83.9,215.157A66.606,66.606,0,0,0,94.335,216h23.333a64.591,64.591,0,0,0,29.3-7.013l3.666.917L76.923,240.615A8,8,0,0,0,72,248v40a8,8,0,0,0,6.685,7.891l60.995,10.166L117.8,312.308l4.4,15.385,104.635-29.9,11.085,33.256-136.654,47.83a11.979,11.979,0,0,1-14.455-5.5L40,289.127V288h-.626l-7.386-13.3A26.819,26.819,0,0,1,29.629,254.18ZM16,446.83a22.051,22.051,0,0,1,21.876-22l126.137-.735L126.754,472H38a22.025,22.025,0,0,1-22-22Z"/><circle cx="76" cy="124" r="12"/><circle cx="140" cy="124" r="12"/></svg>
